<svg width="20" height="20" viewBox="0 0 20 20" fill="none" xmlns="http://www.w3.org/2000/svg">
<path d="M14.7142 13.8807C13.9337 14.6612 12.3015 16.2935 11.1783 17.4166C10.5275 18.0675 9.47323 18.0678 8.82235 17.4169C7.71878 16.3134 6.11816 14.7127 5.28612 13.8807C2.68262 11.2772 2.68262 7.05612 5.28612 4.45262C7.88961 1.84913 12.1107 1.84913 14.7142 4.45262C17.3177 7.05612 17.3177 11.2772 14.7142 13.8807Z" stroke="#ACADB9" stroke-width="1.25" stroke-linecap="round" stroke-linejoin="round"/>
<path d="M12.5002 9.16667C12.5002 10.5474 11.3809 11.6667 10.0002 11.6667C8.61945 11.6667 7.50016 10.5474 7.50016 9.16667C7.50016 7.78595 8.61945 6.66667 10.0002 6.66667C11.3809 6.66667 12.5002 7.78595 12.5002 9.16667Z" stroke="#ACADB9" stroke-width="1.25" stroke-linecap="round" stroke-linejoin="round"/>
</svg>
